<svg id="ae5e2b55-ca4e-4751-a875-c0a008a5ad3b" data-name="Layer 1" xmlns="http://www.w3.org/2000/svg" viewBox="0 0 300 300">
  <path d="M60,60V210.11h5.88A4.61,4.61,0,0,0,68,213.84a9.13,9.13,0,0,0,5,1.26q4.08,0,6.06-2.17c1.32-1.44,2-3.62,2-6.51V176.87h9.33v29.55q0,8.29-4.7,13t-13,4.74A20,20,0,0,1,61.57,221,9.3,9.3,0,0,1,60,219.74V240H240V60Zm78.26,156a19.07,19.07,0,0,1-7.94,6,28.34,28.34,0,0,1-11.17,2.14q-9.27,0-15.07-4.48A25,25,0,0,1,95.82,209H107a11.29,11.29,0,0,0,4.83,4.12,17.87,17.87,0,0,0,8,1.65,18.1,18.1,0,0,0,5.93-.88,9.23,9.23,0,0,0,3.92-2.36A4.69,4.69,0,0,0,131,208.3a2.92,2.92,0,0,0-1.26-2.56,8.73,8.73,0,0,0-3.37-1.26q-2.1-.39-6.38-.91l-1.17-.13a67.5,67.5,0,0,1-11.08-2,14.5,14.5,0,0,1-6.71-3.89,10.13,10.13,0,0,1-2.43-7.16,13.08,13.08,0,0,1,2.69-8.26,17.11,17.11,0,0,1,7.23-5.32,26.23,26.23,0,0,1,10-1.84,23.64,23.64,0,0,1,13.57,3.79A17.26,17.26,0,0,1,139.36,189h-11a8,8,0,0,0-3.63-3.76,13.7,13.7,0,0,0-6.87-1.55,14.27,14.27,0,0,0-4.86.74,7.42,7.42,0,0,0-3.18,2,4.43,4.43,0,0,0-1.1,2.92,3.34,3.34,0,0,0,1.36,2.78,9.72,9.72,0,0,0,3.89,1.59,67.25,67.25,0,0,0,7,1,67.41,67.41,0,0,1,11.11,1.91,14.56,14.56,0,0,1,6.68,3.72,9.61,9.61,0,0,1,2.43,6.94A14.09,14.09,0,0,1,138.26,216Z" fill="#ffb400"/>
</svg>
